<?xml version="1.0" standalone="yes"?>
<svg xmlns="http://www.w3.org/2000/svg" width="252" height="256">
<path style="fill:#fecd22; stroke:none;" d="M0 0L0 256L252 256L252 0L0 0z"/>
<path style="fill:#b8b9b9; stroke:none;" d="M91 55C94.6938 54.6983 98.313 53.3654 102 53.267C105.688 53.1686 109.321 54.6792 113 55C108.809 50.7204 94.7388 49.7081 91 55z"/>
<path style="fill:#a8a9a9; stroke:none;" d="M95 54C99.2165 55.7693 104.459 55 109 55C104.499 52.3036 99.9577 53.3734 95 54z"/>
<path style="fill:#a4a4a4; stroke:none;" d="M80 59L84 59L84 56L95 56C90.7712 53.958 81.549 53.7047 80 59z"/>
<path style="fill:#919091; stroke:none;" d="M95 55C99.9741 57.0872 106.638 56 112 56C107.026 53.9128 100.362 55 95 55z"/>
<path style="fill:#a6a7a7; stroke:none;" d="M112 55C114.332 55.9845 116.457 55.9813 119 56C116.668 55.0155 114.543 55.0187 112 55z"/>
<path style="fill:#cdcdcd; stroke:none;" d="M119.667 55.3333C119.222 55.7778 120.278 55.7222 120.333 55.6667C120.778 55.2222 119.722 55.2778 119.667 55.3333z"/>
<path style="fill:#717171; stroke:none;" d="M84 56L84 60C71.6038 60.4009 65.9287 72.179 56 77L56 84L53 84C52.47 87.3163 51.8982 89.2302 49 91C49 101.85 46.7772 115.331 51.1991 125.259C52.7225 128.68 51.9629 131.819 56 133L56 140L60 140L63 148L67 148L67 151C70.7437 151.271 73.4879 153.002 77 154L77 158C83.1517 158.005 88.0637 160.885 94.0039 160.995C100.182 161.11 106.865 161.629 113 160.867C117.554 160.302 121.282 158.114 126 158L126 155C130.016 154.668 133.263 153.37 137 152C137.578 154.697 138.261 154.789 141 155C142.405 159.138 146.81 163.667 151 165L151 169L155 169C155.889 171.624 157.768 173.509 159 176L163 176C164.418 180.903 168.097 184.582 173 186L173 190C179.289 193.135 187.874 201.729 191 208C195.907 206.962 199.505 202.721 201 198L197 198L197 194C194.618 192.929 192.525 191.683 190 191L190 187C187.876 186.101 187.899 186.124 187 184L183 184L183 180L179 180C177.582 175.097 173.903 171.418 169 170L169 166L165 166L165 162C162.876 161.101 162.899 161.124 162 159L158 159L158 155L154 155C153.518 152.636 153.364 152.482 151 152L151 148C145.364 146.403 142.026 140.658 148 137L148 133L151 133L151 123L154 123L154 95L151 95L151 84L148 84C147.347 78.1144 142.588 75.368 141 70C138.751 68.8464 138.154 68.2489 137 66C133.192 65.117 129.966 63.3598 126 63L126 59L119 59L119 56L84 56z"/>
<path style="fill:#989897; stroke:none;" d="M119 56C119.482 58.364 119.636 58.5175 122 59C121.027 57.7301 120.27 56.9725 119 56z"/>
<path style="fill:#b7b7b7; stroke:none;" d="M120 56C121.666 58.38 123.123 58.6816 126 59C124.057 57.4333 122.421 56.5972 120 56z"/>
<path style="fill:#c7c7c7; stroke:none;" d="M77 58C78.2484 58.6848 78.5484 58.7488 80 59C78.7517 58.3152 78.4515 58.2512 77 58z"/>
<path style="fill:#b5b6b6; stroke:none;" d="M73 62L77 60C74.6918 59.4424 74.2436 60.0036 73 62z"/>
<path style="fill:#828382; stroke:none;" d="M77 62C79.394 60.6608 81.2623 60.1789 84 60C81.1205 58.3409 77.7718 58.3984 77 62z"/>
<path style="fill:#b4b4b4; stroke:none;" d="M126 59C127.377 59.9114 128.44 60.4038 130 61C128.686 59.3821 128.123 59.3067 126 59z"/>
<path style="fill:#9d9d9d; stroke:none;" d="M74 62C76.0924 61.5943 76.0198 61.7833 77 60C75.42 60.6836 75.2228 60.8048 74 62z"/>
<path style="fill:#898989; stroke:none;" d="M126 60C126.578 62.6975 127.261 62.7893 130 63L126 60z"/>
<path style="fill:#a1a1a1; stroke:none;" d="M127 60C128.88 62.4742 130.952 62.7229 134 63C131.764 61.5152 129.591 60.7127 127 60z"/>
<path style="fill:#b3b2b3; stroke:none;" d="M70 62C71.2484 62.6848 71.5484 62.7488 73 63C71.7517 62.3152 71.4515 62.2512 70 62z"/>
<path style="fill:#888788; stroke:none;" d="M70 66C72.3056 64.5799 74.3755 63.6714 77 63C73.7707 61.5919 71.0003 62.5804 70 66z"/>
<path style="fill:#b9b9b9; stroke:none;" d="M66 66C68.7385 65.7893 69.422 65.6975 70 63C68.0515 63.9357 67.4498 64.3924 66 66z"/>
<path style="fill:#919091; stroke:none;" d="M130 63L133 66C133.951 63.4934 132.348 63.2942 130 63z"/>
<path style="fill:#b7b8b8; stroke:none;" d="M134 63C134.578 65.6974 135.261 65.7893 138 66C136.607 64.5664 135.767 63.9551 134 63z"/>
<path style="fill:#878888; stroke:none;" d="M91 65C96.2224 67.1914 103.368 66 109 66C103.778 63.8086 96.6323 65 91 65z"/>
<path style="fill:#c9c9c8; stroke:none;" d="M63 68L66 67C64.2218 66.0446 63.9786 66.2337 63 68z"/>
<path style="fill:#898989; stroke:none;" d="M66 69L70 67C67.5878 65.6452 66.5676 66.3511 66 69z"/>
<path style="fill:#858586; stroke:none;" d="M87 66L87 68L91 68L91 66L87 66z"/>
<path style="fill:#9d9d9d; stroke:none;" d="M91 68L95 67C92.9535 66.2489 92.4043 66.3444 91 68z"/>
<path style="fill:#bfbfbf; stroke:none;" d="M87 69C91.9054 71.0007 96.9017 68.1076 102 68.26C109.439 68.4825 115.959 71.9108 123 73C112.255 63.6585 99.4275 66.3458 87 69z"/>
<path style="fill:#999899; stroke:none;" d="M109 66C111.258 67.8103 113.133 68.6113 116 69C113.743 67.1897 111.867 66.3887 109 66z"/>
<path style="fill:#9c9c9c; stroke:none;" d="M137 66L137 69C137.696 67.4463 137.696 67.5537 137 66z"/>
<path style="fill:#c5c5c4; stroke:none;" d="M138 66C138.482 68.364 138.636 68.5175 141 69C141 67.2032 140.986 67.4785 140 66L138 66z"/>
<path style="fill:#adadad; stroke:none;" d="M59 73L63 73L66 67C62.6972 68.3454 60.2191 69.561 59 73z"/>
<path style="fill:#9c9b9d; stroke:none;" d="M87 68C88.506 68.683 89.3148 68.8259 91 69C89.4939 68.317 88.6852 68.1741 87 68z"/>
<path style="fill:#fecd22; stroke:none;" d="M98 68.4398C89.1223 69.7802 81.2701 72.0184 74.4784 78.2863C64.0808 87.8819 61.609 100.54 62.831 114C63.1066 117.035 62.7769 120.107 63.9198 123C68.2391 133.933 77.2142 142.495 88 147.03C94.136 149.61 106.471 148.918 113 147.772C135.37 143.848 147.047 114.83 140.277 95C134.459 77.9584 116.053 65.7142 98 68.4398z"/>
<path style="fill:#838383; stroke:none;" d="M80 72L84 70C81.5878 68.6452 80.5676 69.3511 80 72z"/>
<path style="fill:#a4a4a4; stroke:none;" d="M84 69C85.2484 69.6848 85.5484 69.7488 87 70C85.7517 69.3152 85.4515 69.2512 84 69z"/>
<path style="fill:#989798; stroke:none;" d="M119 69C120.297 70.9201 120.791 71.3161 123 72C122.422 69.3025 121.739 69.2107 119 69z"/>
<path style="fill:#aeaeae; stroke:none;" d="M138 69C140.341 71.202 142.536 73.1233 144 76C144.683 74.4939 144.826 73.6852 145 72C142.876 71.1007 142.899 71.1236 142 69L138 69z"/>
<path style="fill:#959595; stroke:none;" d="M81 70L81 72L83 72L83 70L81 70z"/>
<path style="fill:#b3b4b4; stroke:none;" d="M83 70C80.6927 72.2349 77.9427 72.7746 77 76C79.481 74.4618 83.8211 73.3191 83 70z"/>
<path style="fill:#cbcbcb; stroke:none;" d="M84 70L84 72C85.6352 71.4549 85.4549 71.6352 86 70L84 70z"/>
<path style="fill:#c4c4c4; stroke:none;" d="M142 70L142 72L144 72L144 70L142 70z"/>
<path style="fill:#c9c9c9; stroke:none;" d="M58 73C57.4549 74.6352 57.6352 74.4549 56 75C58.0335 75.7852 58.7852 75.0335 58 73z"/>
<path style="fill:#8c8c8c; stroke:none;" d="M59 73L59 76C60.0154 74.8606 60.3087 74.3884 61 73L59 73z"/>
<path style="fill:#878587; stroke:none;" d="M74 76C76.364 75.5175 76.5176 75.364 77 73C75.0775 73.9015 75.0012 74.0762 74 76z"/>
<path style="fill:#c3c3c3; stroke:none;" d="M123 73C124.103 74.4567 124.543 74.8966 126 76C125.518 73.636 125.364 73.4825 123 73z"/>
<path style="fill:#b2b2b2; stroke:none;" d="M126 73L126 77L130 78C129.056 76.065 127.514 74.5973 126 73z"/>
<path style="fill:#858484; stroke:none;" d="M141 73C142.139 74.0154 142.612 74.3087 144 75C143.02 73.2167 143.092 73.4057 141 73z"/>
<path style="fill:#c6c6c6; stroke:none;" d="M145 73C145.406 75.0924 145.217 75.0198 147 76C146.309 74.6116 146.015 74.1393 145 73z"/>
<path style="fill:#cccdcd; stroke:none;" d="M78 74L78 76C79.6351 75.455 79.4549 75.6352 80 74L78 74z"/>
<path style="fill:#aeadad; stroke:none;" d="M55 76L55 80C56.3508 78.5982 57.2543 77.8236 59 77C57.4939 76.317 56.6852 76.1741 55 76z"/>
<path style="fill:#a7a6a7; stroke:none;" d="M73 76L73 80L77 77C75.4939 76.317 74.6852 76.1741 73 76z"/>
<path style="fill:#9a9899; stroke:none;" d="M145 76L147 80C147.683 78.494 147.826 77.6852 148 76L145 76z"/>
<path style="fill:#908f8f; stroke:none;" d="M72 77C71.4549 78.6352 71.6352 78.4549 70 79C72.0335 79.7852 72.7852 79.0335 72 77z"/>
<path style="fill:#999999; stroke:none;" d="M130 77C130.406 79.0924 130.217 79.0198 132 80C131.309 78.6116 131.015 78.1394 130 77z"/>
<path style="fill:#818181; stroke:none;" d="M131 77C131.899 79.1236 131.876 79.1007 134 80C133.518 77.636 133.364 77.4825 131 77z"/>
<path style="fill:#c8c9c9; stroke:none;" d="M148.333 78.6667C148.278 78.7222 148.222 79.7778 148.667 79.3333C148.722 79.2778 148.778 78.2222 148.333 78.6667z"/>
<path style="fill:#bcbcbc; stroke:none;" d="M52 80L52 84L55 81C53.7516 80.3152 53.4517 80.2512 52 80z"/>
<path style="fill:#8d8d8e; stroke:none;" d="M55 80C54.3164 81.58 54.1952 81.7772 53 83C55.5767 83.9757 55.9524 82.1389 55 80z"/>
<path style="fill:#939394; stroke:none;" d="M69 80C68.3164 81.58 68.1952 81.7772 67 83C69.5767 83.9757 69.9524 82.1389 69 80z"/>
<path style="fill:#c1c1c1; stroke:none;" d="M70 80L70 84L73 81C71.7517 80.3152 71.4515 80.2512 70 80M131 80L133 84C133.683 82.4939 133.826 81.6852 134 80L131 80z"/>
<path style="fill:#9b9b9a; stroke:none;" d="M148 80C148.307 82.1227 148.382 82.686 150 84C149.489 82.0478 149.267 81.543 148 80z"/>
<path style="fill:#b0b0af; stroke:none;" d="M149 80L151 87C152.177 83.9633 151.661 81.8783 149 80z"/>
<path style="fill:#a7a7a7; stroke:none;" d="M53 81L53 83L55 83L55 81L53 81z"/>
<path style="fill:#c6c6c6; stroke:none;" d="M51 84L51 87C51.6961 85.4463 51.6961 85.5537 51 84z"/>
<path style="fill:#8f8f8f; stroke:none;" d="M52 84L52 88C52.7102 86.2405 52.7102 85.7595 52 84z"/>
<path style="fill:#919191; stroke:none;" d="M65 84L63 90C65.5729 88.3917 66.2897 86.9437 67 84L65 84z"/>
<path style="fill:#c2c2c2; stroke:none;" d="M67 87C68.4566 85.8966 68.8966 85.4566 70 84C67.636 84.4825 67.4825 84.636 67 87z"/>
<path style="fill:#bebebe; stroke:none;" d="M134 84C134.899 86.1236 134.876 86.1007 137 87C136.518 84.636 136.364 84.4825 134 84z"/>
<path style="fill:#9d9d9c; stroke:none;" d="M137 84L137 87C137.696 85.4463 137.696 85.5537 137 84z"/>
<path style="fill:#b9bab9; stroke:none;" d="M49 87C48.428 89.3771 48.1095 91.558 48 94C49.4848 91.7638 50.2873 89.591 51 87L49 87z"/>
<path style="fill:#a3a3a3; stroke:none;" d="M51 87L50 91C51.6556 89.5957 51.7511 89.0465 51 87z"/>
<path style="fill:#bfbfbf; stroke:none;" d="M66 87L66 91C66.7102 89.2405 66.7102 88.7595 66 87M137 87L137 91C137.71 89.2405 137.71 88.7595 137 87z"/>
<path style="fill:#949494; stroke:none;" d="M151 87L151 91C151.71 89.2405 151.71 88.7595 151 87z"/>
<path style="fill:#cccccc; stroke:none;" d="M152.667 87.3333C152.222 87.7778 153.278 87.7222 153.333 87.6667C153.778 87.2222 152.722 87.2778 152.667 87.3333z"/>
<path style="fill:#a3a3a3; stroke:none;" d="M65 88C64.4549 89.6351 64.6352 89.4549 63 90C65.0335 90.7852 65.7852 90.0335 65 88z"/>
<path style="fill:#8e8e8e; stroke:none;" d="M138 88L138 91L141 91L141 88L138 88z"/>
<path style="fill:#a8a8a8; stroke:none;" d="M152 88L152 91L154 91L154 88L152 88z"/>
<path style="fill:#c0c0c0; stroke:none;" d="M154 88L154 91C154.696 89.4463 154.696 89.5537 154 88z"/>
<path style="fill:#9b9b9b; stroke:none;" d="M62 91L62 98C63.0594 95.4657 63.0595 93.5343 62 91z"/>
<path style="fill:#c3c3c3; stroke:none;" d="M63 94L66 92C63.8603 90.8822 63.4732 91.7492 63 94z"/>
<path style="fill:#bbbbbb; stroke:none;" d="M138 91L140 95C140.683 93.4939 140.826 92.6853 141 91L138 91z"/>
<path style="fill:#a7a7a7; stroke:none;" d="M141 91C141 95.1924 140.175 99.5204 144 102C142.876 98.3985 142.446 94.4064 141 91z"/>
<path style="fill:#828283; stroke:none;" d="M151 91L151 95L154 95L154 123C155.552 119.301 155 114.983 155 111L155 91L151 91z"/>
<path style="fill:#959595; stroke:none;" d="M48 94L48 119C50.4129 113.25 50.4129 99.7503 48 94z"/>
<path style="fill:#7f7f7f; stroke:none;" d="M61 94C59.7034 95.5945 59.4646 96.0182 59 98C61.6489 97.4324 62.3548 96.4122 61 94z"/>
<path style="fill:#7c7a7b; stroke:none;" d="M142 94C142.503 101 145.543 106.629 144.942 113.996C144.504 119.371 141.121 123.338 141 129C141.779 127.231 141.912 125.964 142 124L145 124C146.197 114.531 147.799 103.004 144 94L142 94z"/>
<path style="fill:#aaaaaa; stroke:none;" d="M155 95L155 119C157.799 112.511 157.726 101.494 155 95z"/>
<path style="fill:#b1b1b0; stroke:none;" d="M47 97C46.9467 103.439 45.1377 109.7 47 116C49.0196 111.187 49.0196 101.813 47 97z"/>
<path style="fill:#7b7b7b; stroke:none;" d="M58 98L58 119C60.153 113.869 60.153 103.131 58 98z"/>
<path style="fill:#a7a7a7; stroke:none;" d="M59 98C59 103.937 56.8079 115.047 62 119C60.3554 110.989 60.3554 106.011 62 98L59 98z"/>
<path style="fill:#c6c6c6; stroke:none;" d="M62 98C59.6637 105.487 59.6637 111.513 62 119C63.9817 114.267 63.9891 102.742 62 98z"/>
<path style="fill:#c1c1c1; stroke:none;" d="M156 98L156 119C159.114 113.802 159.451 103.052 156 98z"/>
<path style="fill:#c6c6c6; stroke:none;" d="M46 100C44.0287 106.669 44.965 113.478 47 120C48.0467 116.822 46.4288 114.26 46.1435 111C45.8097 107.185 47.4168 103.63 46 100z"/>
<path style="fill:#babbbb; stroke:none;" d="M141 101L141 119C144.64 114.454 146.215 104.761 141 101z"/>
<path style="fill:#969696; stroke:none;" d="M144 101C144 104.877 144.457 109.089 143.737 112.91C143.071 116.442 141.333 119.33 141 123C145.702 117.592 146.791 107.652 144 101z"/>
<path style="fill:#908f8f; stroke:none;" d="M59 116C59.3425 119.223 60.1532 121.355 63 123L63 119C61.2543 118.176 60.3508 117.402 59 116z"/>
<path style="fill:#a9aaa9; stroke:none;" d="M48 119L48 123C48.7102 121.241 48.7102 120.759 48 119z"/>
<path style="fill:#cccccd; stroke:none;" d="M155 119L155 123C155.71 121.24 155.71 120.759 155 119z"/>
<path style="fill:#b2b2b2; stroke:none;" d="M140 122L138 127C141.012 126.354 141.498 124.613 140 122z"/>
<path style="fill:#bcbcbd; stroke:none;" d="M48 123L48 127C48.7102 125.241 48.7102 124.759 48 123z"/>
<path style="fill:#8e8e8f; stroke:none;" d="M49 123C49.4825 125.364 49.636 125.518 52 126C51.0985 124.077 50.9238 124.001 49 123z"/>
<path style="fill:#c6c6c6; stroke:none;" d="M63 123C63.4824 125.364 63.636 125.518 66 126C64.8966 124.543 64.4566 124.103 63 123z"/>
<path style="fill:#888788; stroke:none;" d="M151 123L151 130C152.81 127.743 153.611 125.867 154 123L151 123z"/>
<path style="fill:#a2a2a2; stroke:none;" d="M154 123L154 126C154.696 124.446 154.696 124.554 154 123z"/>
<path style="fill:#9e9fa0; stroke:none;" d="M49 126L51 130C51.683 128.494 51.8259 127.685 52 126L49 126z"/>
<path style="fill:#9a989a; stroke:none;" d="M63 126L65 130C65.683 128.494 65.8259 127.685 66 126L63 126z"/>
<path style="fill:#cdcdcd; stroke:none;" d="M154 126L153 130C154.656 128.596 154.751 128.046 154 126z"/>
<path style="fill:#c0c1c1; stroke:none;" d="M49 127L49 130L51 130L51 127L49 127z"/>
<path style="fill:#bebdbe; stroke:none;" d="M66 127L66 130C66.6961 128.446 66.6961 128.554 66 127z"/>
<path style="fill:#bdbcbd; stroke:none;" d="M137 127L137 130C137.696 128.446 137.696 128.554 137 127z"/>
<path style="fill:#868586; stroke:none;" d="M138 127L138 130L141 130L141 127L138 127z"/>
<path style="fill:#afafaf; stroke:none;" d="M152 127C151.277 130.457 150.233 133.693 149 137C152.257 134.73 153.001 130.735 154 127L152 127z"/>
<path style="fill:#c8c8c8; stroke:none;" d="M51 130L51 133C51.6961 131.446 51.6961 131.554 51 130z"/>
<path style="fill:#8c8c8c; stroke:none;" d="M52 130L52 134C54.1236 134.899 54.1007 134.876 55 137C55.683 135.494 55.8259 134.685 56 133C54.2543 132.176 53.3508 131.402 52 130z"/>
<path style="fill:#9c9c9c; stroke:none;" d="M66 130L66 133C66.6961 131.446 66.6961 131.554 66 130z"/>
<path style="fill:#bdbdbc; stroke:none;" d="M67 130C67.4824 132.364 67.636 132.518 70 133C68.8966 131.543 68.4566 131.103 67 130z"/>
<path style="fill:#b9b9b9; stroke:none;" d="M136 130C134.964 131.186 134.661 131.604 134 133C136.251 132.527 137.118 132.14 136 130z"/>
<path style="fill:#9c9c9c; stroke:none;" d="M137 130L137 133C137.696 131.446 137.696 131.554 137 130z"/>
<path style="fill:#909090; stroke:none;" d="M67 133L69 137C69.683 135.494 69.8259 134.685 70 133L67 133z"/>
<path style="fill:#9c9d9d; stroke:none;" d="M134 133C135.248 133.685 135.548 133.749 137 134C135.752 133.315 135.452 133.251 134 133z"/>
<path style="fill:#9e9e9e; stroke:none;" d="M148 133L148 137C149.434 135.607 150.045 134.767 151 133L148 133z"/>
<path style="fill:#c1c1c1; stroke:none;" d="M52 134C52.4824 136.364 52.636 136.518 55 137C54.0275 135.73 53.2699 134.973 52 134z"/>
<path style="fill:#ababab; stroke:none;" d="M53 134L53 136L55 136L55 134L53 134z"/>
<path style="fill:#c1c1c0; stroke:none;" d="M70 134C70.4824 136.364 70.636 136.518 73 137C72.0275 135.73 71.2699 134.973 70 134z"/>
<path style="fill:#c3c2c3; stroke:none;" d="M133 134C131.777 135.195 131.58 135.316 130 136C132.139 136.952 133.976 136.577 133 134z"/>
<path style="fill:#b4b3b4; stroke:none;" d="M55 137C55.5083 140.013 56.1595 140.873 59 142C58.0555 140.065 56.5144 138.597 55 137z"/>
<path style="fill:#969696; stroke:none;" d="M70 137C71.1394 138.015 71.6116 138.309 73 139C72.0198 137.217 72.0924 137.406 70 137z"/>
<path style="fill:#bcbcbc; stroke:none;" d="M73 137C73.8403 139.742 75.6419 141.515 77 144L81 144C78.9908 140.859 75.9524 139.234 73 137z"/>
<path style="fill:#999999; stroke:none;" d="M130 137L130 140C131.015 138.861 131.309 138.388 132 137L130 137z"/>
<path style="fill:#7c7b7c; stroke:none;" d="M145 137C144.155 141.628 144.491 144.011 147 148C148.355 145.588 147.649 144.568 145 144L147 137L145 137z"/>
<path style="fill:#a2a3a2; stroke:none;" d="M147 137L145 144C148.602 143.228 148.659 139.88 147 137z"/>
<path style="fill:#cecece; stroke:none;" d="M148.333 137.667C148.278 137.722 148.222 138.778 148.667 138.333C148.722 138.278 148.778 137.222 148.333 137.667z"/>
<path style="fill:#7f7f7f; stroke:none;" d="M70 138C71.7268 140.896 73.9514 142.575 77 144C75.7809 140.561 73.3028 139.345 70 138z"/>
<path style="fill:#c6c6c6; stroke:none;" d="M129.333 138.667C129.278 138.722 129.222 139.778 129.667 139.333C129.722 139.278 129.778 138.222 129.333 138.667z"/>
<path style="fill:#8b8989; stroke:none;" d="M59 140C59.3067 142.123 59.3821 142.686 61 144C60.4038 142.44 59.9114 141.377 59 140z"/>
<path style="fill:#a0a1a0; stroke:none;" d="M126 140C125.316 141.58 125.195 141.777 124 143C126.358 143.621 127.84 142.06 130 141C128.494 140.317 127.685 140.174 126 140z"/>
<path style="fill:#c2c2c2; stroke:none;" d="M123 144C124.924 142.999 125.098 142.923 126 141C123.876 141.899 123.899 141.876 123 144z"/>
<path style="fill:#cecdcd; stroke:none;" d="M58.3333 142.667C58.2778 142.722 58.2222 143.778 58.6667 143.333C58.7223 143.278 58.7778 142.222 58.3333 142.667z"/>
<path style="fill:#acacac; stroke:none;" d="M59 144L62 147C62.951 144.493 61.348 144.294 59 144z"/>
<path style="fill:#a3a2a3; stroke:none;" d="M80 144L83 147C83.951 144.493 82.348 144.294 80 144z"/>
<path style="fill:#c4c4c4; stroke:none;" d="M84 144C84.4824 146.364 84.636 146.518 87 147C85.8966 145.543 85.4566 145.103 84 144z"/>
<path style="fill:#bcbcbc; stroke:none;" d="M115 147C116.769 147.779 118.036 147.912 120 148L121 144L115 147z"/>
<path style="fill:#919192; stroke:none;" d="M120 148L126 145C122.736 143.759 121.07 144.769 120 148z"/>
<path style="fill:#a6a6a6; stroke:none;" d="M148 144L148 148L152 148L151 144L148 144z"/>
<path style="fill:#c3c3c3; stroke:none;" d="M59 145C60.4498 146.608 61.0514 147.064 63 148C61.7034 146.08 61.2089 145.684 59 145z"/>
<path style="fill:#8b8a8c; stroke:none;" d="M80 145C80.578 147.697 81.2614 147.789 84 148L83 145L80 145z"/>
<path style="fill:#b3b3b3; stroke:none;" d="M84 147C85.506 147.683 86.3148 147.826 88 148C86.494 147.317 85.6852 147.174 84 147z"/>
<path style="fill:#c5c5c5; stroke:none;" d="M63 148C63.8993 150.124 63.8764 150.101 66 151C65.5176 148.636 65.364 148.482 63 148z"/>
<path style="fill:#a8a8a8; stroke:none;" d="M66 148L66 152L70 152L66 148z"/>
<path style="fill:#989898; stroke:none;" d="M91 148L91 152C99.9422 152 107.783 152.677 116 149C112.664 147.844 110.322 150.217 106.985 150.776C103.116 151.424 98.9143 151 95 151L95 148L91 148z"/>
<path style="fill:#b4b3b3; stroke:none;" d="M95 148C96.1142 153.2 109.875 152.299 112 148C105.377 148.974 101.538 149.536 95 148z"/>
<path style="fill:#bfbfbf; stroke:none;" d="M98 148L98 150C101.763 149.99 105.3 149.687 109 149C105.568 147.56 101.7 148 98 148z"/>
<path style="fill:#8c8c8c; stroke:none;" d="M151 148L151 152C153.124 152.899 153.101 152.876 154 155C154.683 153.494 154.826 152.685 155 151C153.254 150.176 152.351 149.402 151 148z"/>
<path style="fill:#bfbfbf; stroke:none;" d="M152 148L154 151C155.118 148.86 154.251 148.473 152 148z"/>
<path style="fill:#a7a7a7; stroke:none;" d="M152 149L152 151L154 151L154 149L152 149z"/>
<path style="fill:#858685; stroke:none;" d="M70 151C71.2226 154.687 73.3084 154.88 77 155C74.7733 153.061 72.8495 151.779 70 151z"/>
<path style="fill:#cbcbcc; stroke:none;" d="M155.667 151.333C155.222 151.778 156.278 151.722 156.333 151.667C156.778 151.222 155.722 151.278 155.667 151.333z"/>
<path style="fill:#bcbcbc; stroke:none;" d="M68 152C69.0012 153.924 69.0775 154.098 71 155C69.9988 153.076 69.9225 152.902 68 152z"/>
<path style="fill:#a1a1a1; stroke:none;" d="M130 154C132.88 155.659 136.228 155.602 137 152L130 154z"/>
<path style="fill:#9d9d9d; stroke:none;" d="M155 152C155.482 154.364 155.636 154.518 158 155C157.027 153.73 156.27 152.973 155 152z"/>
<path style="fill:#b0afaf; stroke:none;" d="M156 152C156.902 153.923 157.076 153.999 159 155C158.101 152.876 158.124 152.899 156 152z"/>
<path style="fill:#b8b8b8; stroke:none;" d="M72 155C74.4027 157.888 76.2595 158.72 80 159C77.4862 157.137 74.9865 155.929 72 155z"/>
<path style="fill:#9d9d9d; stroke:none;" d="M74 155C75.1394 156.015 75.6116 156.309 77 157C76.0198 155.217 76.0924 155.406 74 155z"/>
<path style="fill:#9f9fa0; stroke:none;" d="M126 158C127.949 157.064 128.55 156.608 130 155C127.261 155.211 126.578 155.303 126 158z"/>
<path style="fill:#cdcdce; stroke:none;" d="M130.667 155.333C130.222 155.778 131.278 155.722 131.333 155.667C131.778 155.222 130.722 155.278 130.667 155.333z"/>
<path style="fill:#a0a0a0; stroke:none;" d="M137 155L140 158C140.951 155.493 139.348 155.294 137 155z"/>
<path style="fill:#8d8d8d; stroke:none;" d="M158 155L158 159L162 159C160.67 157.247 159.753 156.33 158 155z"/>
<path style="fill:#b9b9b9; stroke:none;" d="M159 155C160.103 156.457 160.543 156.897 162 158C161.518 155.636 161.364 155.482 159 155z"/>
<path style="fill:#bebebe; stroke:none;" d="M129 156L128 158L130 158C130 156.147 130.3 156.65 129 156z"/>
<path style="fill:#b4b4b4; stroke:none;" d="M138 156C138.899 158.124 138.876 158.101 141 159C139.999 157.076 139.923 156.902 138 156z"/>
<path style="fill:#828282; stroke:none;" d="M80 158C90.2426 164.507 104.322 162 116 162C109.262 159.172 100.236 161.536 93.0147 160.942C88.3945 160.562 84.8277 158.057 80 158z"/>
<path style="fill:#8f8e90; stroke:none;" d="M116 160C118.536 160.63 120.485 159.776 123 159C120.249 158.035 118.611 158.748 116 160z"/>
<path style="fill:#b4b4b5; stroke:none;" d="M116 161C119.572 162.236 122.631 160.372 126 159C122.501 157.979 119.364 159.881 116 161z"/>
<path style="fill:#cbcbcb; stroke:none;" d="M126.667 158.333C126.222 158.778 127.278 158.722 127.333 158.667C127.778 158.222 126.722 158.278 126.667 158.333z"/>
<path style="fill:#a4a3a3; stroke:none;" d="M141 158C142.215 160.001 142.999 160.785 145 162C144.161 159.374 143.626 158.839 141 158z"/>
<path style="fill:#bebdbd; stroke:none;" d="M162 158C163.215 160.001 163.999 160.785 166 162C164.846 159.751 164.249 159.154 162 158z"/>
<path style="fill:#b1b1b2; stroke:none;" d="M80 159C81.9606 161.723 83.6993 161.893 87 162C84.7425 160.19 82.8675 159.389 80 159z"/>
<path style="fill:#c6c5c5; stroke:none;" d="M141 159C141.482 161.364 141.636 161.518 144 162C143.027 160.73 142.27 159.973 141 159z"/>
<path style="fill:#9f9e9e; stroke:none;" d="M162 159C162.482 161.364 162.636 161.518 165 162C164.027 160.73 163.27 159.973 162 159z"/>
<path style="fill:#c5c5c5; stroke:none;" d="M122 160L120 161C121.482 161.791 122.796 161.87 122 160z"/>
<path style="fill:#bfbfbf; stroke:none;" d="M88 162C97.0835 166.936 106.461 164.402 116 163C112.08 161.371 108.125 162.787 104 162.961C98.6227 163.187 93.3689 162.044 88 162z"/>
<path style="fill:#a6a6a6; stroke:none;" d="M95 162C99.2165 163.769 104.459 163 109 163C104.783 161.231 99.5411 162 95 162z"/>
<path style="fill:#cecece; stroke:none;" d="M144.333 162.667C144.278 162.722 144.222 163.778 144.667 163.333C144.722 163.278 144.778 162.222 144.333 162.667z"/>
<path style="fill:#a0a0a0; stroke:none;" d="M145 162L147 165C148.118 162.86 147.251 162.473 145 162z"/>
<path style="fill:#8e8e8e; stroke:none;" d="M165 162L165 166L169 166L165 162z"/>
<path style="fill:#c3c3c3; stroke:none;" d="M166 162L166 164L169 164L169 162L166 162z"/>
<path style="fill:#adadad; stroke:none;" d="M145 163C146.454 165.966 148.034 167.546 151 169L151 165L145 163z"/>
<path style="fill:#ababab; stroke:none;" d="M166 164C167.248 164.685 167.548 164.749 169 165C167.752 164.315 167.452 164.251 166 164z"/>
<path style="fill:#c1c1c1; stroke:none;" d="M169 165C170.215 167.001 170.999 167.785 173 169C172.146 166.475 171.492 165.97 169 165z"/>
<path style="fill:#a1a1a1; stroke:none;" d="M169 166C169.482 168.364 169.636 168.518 172 169C171.027 167.73 170.27 166.973 169 166z"/>
<path style="fill:#a3a3a3; stroke:none;" d="M151 169C152.992 172.239 155.573 174.366 159 176C158.16 173.258 156.358 171.485 155 169L151 169z"/>
<path style="fill:#868686; stroke:none;" d="M169 169L172 172C172.951 169.493 171.348 169.294 169 169z"/>
<path style="fill:#b8b8b8; stroke:none;" d="M173 169C173.736 171.562 174.519 171.983 177 173L176 169L173 169z"/>
<path style="fill:#939394; stroke:none;" d="M173 172C174.248 172.685 174.548 172.749 176 173C174.752 172.315 174.452 172.251 173 172z"/>
<path style="fill:#c6c6c6; stroke:none;" d="M155 173C155.406 175.092 155.217 175.02 157 176C156.309 174.612 156.015 174.139 155 173z"/>
<path style="fill:#949495; stroke:none;" d="M176 173L176 176C176.696 174.446 176.696 174.554 176 173z"/>
<path style="fill:#b3b3b3; stroke:none;" d="M177 173L177 176L180 176L180 173L177 173z"/>
<path style="fill:#b5b5b5; stroke:none;" d="M158 176C159.017 178.481 159.438 179.264 162 180L162 176L158 176z"/>
<path style="fill:#868788; stroke:none;" d="M162 176C162.211 178.739 162.303 179.422 165 180L162 176z"/>
<path style="fill:#878687; stroke:none;" d="M177 176L179 180C179.683 178.494 179.826 177.685 180 176L177 176z"/>
<path style="fill:#a6a6a6; stroke:none;" d="M180 176L180 180L184 180L180 176z"/>
<path style="fill:#c2c3c3; stroke:none;" d="M181 176L181 179L183 179L183 176L181 176z"/>
<path style="fill:#bbbbbb; stroke:none;" d="M162 180L162 183L165 183L165 180L162 180z"/>
<path style="fill:#9e9e9e; stroke:none;" d="M165 180L165 184L169 184L165 180z"/>
<path style="fill:#919190; stroke:none;" d="M183 180L183 184L187 184L183 180z"/>
<path style="fill:#b0b0b0; stroke:none;" d="M184 180C184.406 182.092 184.217 182.02 186 183C185.309 181.612 185.015 181.139 184 180z"/>
<path style="fill:#c7c7c7; stroke:none;" d="M185 180C185.684 181.58 185.805 181.777 187 183L187 180L185 180z"/>
<path style="fill:#a6a6a5; stroke:none;" d="M187 183L187 187L191 188C190.051 185.433 189.306 184.468 187 183z"/>
<path style="fill:#b6b6b6; stroke:none;" d="M166 184C167.139 185.015 167.612 185.309 169 186C168.02 184.217 168.092 184.406 166 184z"/>
<path style="fill:#888888; stroke:none;" d="M169 184C169.578 186.697 170.261 186.789 173 187L169 184z"/>
<path style="fill:#c9c9c9; stroke:none;" d="M166 185C166.98 186.783 166.908 186.594 169 187C167.777 185.805 167.58 185.684 166 185z"/>
<path style="fill:#a9a9a9; stroke:none;" d="M169 187C175.316 193.159 180.538 203.93 190 205C184.431 199.683 176.716 193.744 173 187L169 187z"/>
<path style="fill:#b3b3b3; stroke:none;" d="M191 187C191.482 189.364 191.636 189.518 194 190C194 188.203 193.986 188.479 193 187L191 187z"/>
<path style="fill:#bfbfbf; stroke:none;" d="M169 188C170.223 189.195 170.42 189.316 172 190C171.02 188.217 171.092 188.406 169 188z"/>
<path style="fill:#929192; stroke:none;" d="M190 188C190.736 190.562 191.519 190.983 194 192C192.94 190.142 191.781 189.232 190 188z"/>
<path style="fill:#b1b1b1; stroke:none;" d="M194 190L194 194L198 195C197.051 192.433 196.306 191.468 194 190z"/>
<path style="fill:#c1c1c1; stroke:none;" d="M173 192C174.223 193.195 174.42 193.316 176 194C174.777 192.805 174.58 192.684 173 192z"/>
<path style="fill:#c2c3c3; stroke:none;" d="M198 194C198.482 196.364 198.636 196.518 201 197C201 195.203 200.986 195.478 200 194L198 194z"/>
<path style="fill:#939493; stroke:none;" d="M197 195C197.578 197.697 198.261 197.789 201 198L197 195z"/>
<path style="fill:#c6c6c6; stroke:none;" d="M201 197L201 202C202.416 201.528 202.814 201.186 204 200C202.897 198.543 202.457 198.103 201 197z"/>
<path style="fill:#999999; stroke:none;" d="M198 201L198 204L201 204L201 201L198 201z"/>
<path style="fill:#c5c5c5; stroke:none;" d="M197 204L197 208C198.351 206.598 199.254 205.824 201 205C199.494 204.317 198.685 204.174 197 204z"/>
<path style="fill:#b8b8b8; stroke:none;" d="M187 205C187.899 207.124 187.876 207.101 190 208C189.518 205.636 189.364 205.482 187 205z"/>
<path style="fill:#9a9a9a; stroke:none;" d="M190 205L190 208C190.696 206.446 190.696 206.554 190 205z"/>
<path style="fill:#9d9d9d; stroke:none;" d="M196 205C195.455 206.635 195.635 206.455 194 207C196.034 207.785 196.785 207.033 196 205z"/>
<path style="fill:#bcbcbc; stroke:none;" d="M190 208C191.956 209.32 192.608 209.299 195 209C193.231 208.221 191.964 208.088 190 208z"/>
</svg>
